# xmcd CD database file
#
# Track frame offsets:
#	150
#	17610
#	40967
#	56172
#	80570
#	103055
#	128065
#	155215
#	177660
#	200655
#	225825
#	250065
#	285342
#
# Disc length: 4121 seconds
#
# Revision: 0
# Processed by: cddbd v1.5.1PL0 Copyright (c) Steve Scherf et al.
# Submitted via: CDex 1.51
#
DISCID=b010170d
DTITLE=Various Artist - MAHARAJA NIGHT HOUSE REVOLUTION VOL.8
DYEAR=1994
DGENRE=Dance
TTITLE0=YOU GOT THE MAGIC - JADE 4 U
TTITLE1=NOISE MAKER - METAL MINDED MANIACS
TTITLE2=SHINE ON - HUGH K.
TTITLE3=PARTY ALL NIGHT - BASS EXPANDERS
TTITLE4=I LET YOU GO - HOUSE CORPORATION
TTITLE5=GET AWAY - DOC BROWN
TTITLE6=DEEPLY IN MY SOUL - LEGEND
TTITLE7=LOVING YOU - PHASE GENERATOR
TTITLE8=HOW DEEP IS YOUR LOVE - DAVID MICHAEL JOHNSON
TTITLE9=FEEL MY LOVE - QUENCH
TTITLE10=TELL ME (DOES IT FEEL GOOD) - ERIRE
TTITLE11=TELL ME WHY - SPLASH
TTITLE12=RESPECT - SUB SUB
EXTD=YEAR: 1994
EXTT0=
EXTT1=
EXTT2=
EXTT3=
EXTT4=
EXTT5=
EXTT6=
EXTT7=
EXTT8=
EXTT9=
EXTT10=
EXTT11=
EXTT12=
PLAYORDER=
